<?xml version="1.0" standalone="no"?>
<!DOCTYPE svg PUBLIC "-//W3C//DTD SVG 20010904//EN"
 "http://www.w3.org/TR/2001/REC-SVG-20010904/DTD/svg10.dtd">
<svg version="1.0" xmlns="http://www.w3.org/2000/svg"
 width="512.000000pt" height="512.000000pt" viewBox="0 0 512.000000 512.000000"
 preserveAspectRatio="xMidYMid meet">
<metadata>
Created by potrace 1.14, written by Peter Selinger 2001-2017
</metadata>
<g transform="translate(0.000000,512.000000) scale(0.100000,-0.100000)"
fill="#000000" stroke="none">
<path d="M1987 4694 c-1 -1 -41 -5 -89 -8 -48 -3 -93 -8 -100 -11 -7 -2 -31
-6 -53 -9 -108 -15 -300 -66 -420 -112 -582 -225 -998 -670 -1131 -1209 -35
-142 -39 -187 -38 -395 0 -219 23 -366 83 -549 90 -273 210 -467 411 -669
l100 -100 2 -426 3 -425 320 186 c176 102 336 195 355 205 19 11 65 38 103 60
58 34 73 38 110 34 96 -13 340 -32 438 -35 14 -1 34 -9 45 -18 137 -124 327
-241 484 -298 41 -14 84 -30 95 -35 11 -5 34 -12 50 -16 17 -4 35 -8 40 -10
34 -10 180 -36 230 -42 79 -9 368 -9 475 1 78 7 178 18 190 20 3 1 25 -10 50
-25 355 -208 705 -407 708 -403 2 2 4 172 4 376 l0 373 92 92 c145 146 259
317 332 498 20 50 38 98 40 106 2 8 12 51 24 94 39 152 45 209 45 421 0 191
-10 256 -62 420 -157 499 -618 905 -1192 1050 -58 15 -98 31 -104 41 -24 43
-173 217 -243 284 -298 284 -653 460 -1049 520 -66 11 -340 22 -348 14z"/>
</g>
</svg>
